<?xml version="1.0" encoding="UTF-8"?>
<svg version="1.1" xmlns="http://www.w3.org/2000/svg" width="107" height="77">
<path d="M0 0 C4.29 0 8.58 0 13 0 C13.495 8.415 13.495 8.415 14 17 C14.7425 15.96875 15.485 14.9375 16.25 13.875 C21.45447199 7.91836656 27.95233073 4.58844621 35.76171875 3.453125 C47.14173211 3.03888791 54.7589068 6.40951942 63 14 C62.505 9.545 62.505 9.545 62 5 C60.35 4.67 58.7 4.34 57 4 C57 2.68 57 1.36 57 0 C62.07198888 -0.07413521 67.14366268 -0.12859451 72.21606445 -0.16479492 C73.94170627 -0.17988516 75.66730972 -0.20035975 77.39282227 -0.22631836 C79.87265488 -0.26269209 82.35198064 -0.27972359 84.83203125 -0.29296875 C85.60400345 -0.30845261 86.37597565 -0.32393646 87.17134094 -0.33988953 C92.50086405 -0.34156558 92.50086405 -0.34156558 94.9921875 1.36328125 C96.42856855 3.69600861 96.29315603 5.47566191 96.1875 8.1875 C96.14689453 9.53908203 96.14689453 9.53908203 96.10546875 10.91796875 C96.07066406 11.60503906 96.03585938 12.29210938 96 13 C94.1875 12.8125 94.1875 12.8125 92 12 C91.56042969 11.18144531 91.12085937 10.36289063 90.66796875 9.51953125 C89.18211318 6.68804745 89.18211318 6.68804745 85.86328125 6.07421875 C84.69152344 5.94660156 83.51976563 5.81898438 82.3125 5.6875 C79.1878125 5.3471875 79.1878125 5.3471875 76 5 C76 12.26 76 19.52 76 27 C79.3 27 82.6 27 86 27 C86 29.31 86 31.62 86 34 C82.7 34 79.4 34 76 34 C76 45.22 76 56.44 76 68 C79.3 68 82.6 68 86 68 C86 69.65 86 71.3 86 73 C82.04131164 73.9432522 78.37618949 74.10420263 74.3125 74.0625 C73.17425781 74.05347656 72.03601563 74.04445313 70.86328125 74.03515625 C69.44595703 74.01775391 69.44595703 74.01775391 68 74 C67.34 74 66.68 74 66 74 C63.33333333 74 60.66666667 74 58 74 C58 72.02 58 70.04 58 68 C59.98 68 61.96 68 64 68 C63.505 60.575 63.505 60.575 63 53 C61.824375 54.093125 60.64875 55.18625 59.4375 56.3125 C52.51062033 62.37046014 45.21034974 64.60395736 36 64 C26.59524325 62.18666455 19.55919689 57.87552893 14 50 C13.76216797 51.10408203 13.76216797 51.10408203 13.51953125 52.23046875 C11.10764662 62.31774313 11.10764662 62.31774313 6 66 C3.03 66.99 3.03 66.99 0 68 C8.25 68 16.5 68 25 68 C25 69.65 25 71.3 25 73 C21.45811722 74.09828769 18.1790238 74.11445011 14.484375 74.09765625 C13.23398437 74.09443359 11.98359375 74.09121094 10.6953125 74.08789062 C8.74238281 74.07532227 8.74238281 74.07532227 6.75 74.0625 C4.77386719 74.05573242 4.77386719 74.05573242 2.7578125 74.04882812 C-0.49483741 74.03704316 -3.74739584 74.02059011 -7 74 C-7.06584383 72.38335572 -7.11310616 70.76594625 -7.15234375 69.1484375 C-7.18062256 68.24786621 -7.20890137 67.34729492 -7.23803711 66.41943359 C-7 64 -7 64 -4.5625 61.625 C-3.716875 61.08875 -2.87125 60.5525 -2 60 C-0.83739113 56.8535594 -0.84715307 53.73370886 -0.79467773 50.40527344 C-0.7647599 48.72398346 -0.7647599 48.72398346 -0.73423767 47.00872803 C-0.70916893 45.20229828 -0.70916893 45.20229828 -0.68359375 43.359375 C-0.66281265 42.12205627 -0.64203156 40.88473755 -0.62062073 39.60992432 C-0.56634128 36.32861309 -0.51608221 33.04727267 -0.46777344 29.76586914 C-0.41743908 26.41416896 -0.3617364 23.0625628 -0.30664062 19.7109375 C-0.19955487 13.14069321 -0.09825874 6.57038199 0 0 Z " fill="#0C242D" transform="translate(9,2)"/>
<path d="M0 0 C1.32 0.33 2.64 0.66 4 1 C3.34 2.32 2.68 3.64 2 5 C1.01 5 0.02 5 -1 5 C-1 8.3 -1 11.6 -1 15 C1.64 15 4.28 15 7 15 C5.64908476 19.42117715 3.8349855 21.443343 0 24 C-2.3125 24.75 -2.3125 24.75 -4 25 C-4.01933594 25.75667969 -4.03867187 26.51335938 -4.05859375 27.29296875 C-5 30 -5 30 -8.16015625 31.80078125 C-9.45305848 32.32457241 -10.75441083 32.82788046 -12.0625 33.3125 C-12.72572266 33.57611328 -13.38894531 33.83972656 -14.07226562 34.11132812 C-15.70796505 34.75854732 -17.3531728 35.38164295 -19 36 C-24.68771422 32.03182729 -27.60187783 27.50918874 -30 21 C-30.3125 17.375 -30.3125 17.375 -30 15 C-29.01 14.67 -28.02 14.34 -27 14 C-27 13.01 -27 12.02 -27 11 C-26.24074219 10.73445313 -25.48148438 10.46890625 -24.69921875 10.1953125 C-23.70535156 9.84210937 -22.71148437 9.48890625 -21.6875 9.125 C-20.70136719 8.77695312 -19.71523438 8.42890625 -18.69921875 8.0703125 C-15.84405623 7.04694076 -15.84405623 7.04694076 -13 5 C-10.67126625 4.31744011 -8.33817209 3.64949225 -6 3 C-5.67 2.67 -5.34 2.34 -5 2 C-3.33382885 1.95936168 -1.66611905 1.957279 0 2 C0 1.34 0 0.68 0 0 Z " fill="#ED5A30" transform="translate(56,19)"/>
<path d="M0 0 C1.32 0.33 2.64 0.66 4 1 C3.34 2.32 2.68 3.64 2 5 C1.01 5 0.02 5 -1 5 C-1 8.3 -1 11.6 -1 15 C1.64 15 4.28 15 7 15 C5.25 19.875 5.25 19.875 3 21 C3 19.35 3 17.7 3 16 C-7.23 16 -17.46 16 -28 16 C-26.19623909 24.11692409 -24.8320491 28.78936427 -18.6875 33.9375 C-17.8521875 34.4634375 -17.8521875 34.4634375 -17 35 C-17.99 35.495 -17.99 35.495 -19 36 C-24.68771422 32.03182729 -27.60187783 27.50918874 -30 21 C-30.3125 17.375 -30.3125 17.375 -30 15 C-29.01 14.67 -28.02 14.34 -27 14 C-27 13.01 -27 12.02 -27 11 C-26.24074219 10.73445313 -25.48148438 10.46890625 -24.69921875 10.1953125 C-23.70535156 9.84210937 -22.71148437 9.48890625 -21.6875 9.125 C-20.70136719 8.77695312 -19.71523438 8.42890625 -18.69921875 8.0703125 C-15.84405623 7.04694076 -15.84405623 7.04694076 -13 5 C-10.67126625 4.31744011 -8.33817209 3.64949225 -6 3 C-5.67 2.67 -5.34 2.34 -5 2 C-3.33382885 1.95936168 -1.66611905 1.957279 0 2 C0 1.34 0 0.68 0 0 Z " fill="#C55C40" transform="translate(56,19)"/>
<path d="M0 0 C9.9 0 19.8 0 30 0 C30 1.98 30 3.96 30 6 C28.04174127 6.02694851 26.08337774 6.04637218 24.125 6.0625 C22.48917969 6.07990234 22.48917969 6.07990234 20.8203125 6.09765625 C18 6 18 6 16 5 C13.6618385 5.29758419 11.32817964 5.63239269 9 6 C8.01 6 7.02 6 6 6 C4.7315625 6.061875 4.7315625 6.061875 3.4375 6.125 C1 6 1 6 -1 4 C-0.67 2.68 -0.34 1.36 0 0 Z " fill="#0B242E" transform="translate(36,70)"/>
<path d="M0 0 C0.33 2.31 0.66 4.62 1 7 C-5.93 7 -12.86 7 -20 7 C-20.33 6.01 -20.66 5.02 -21 4 C-19.44539063 3.69255859 -19.44539063 3.69255859 -17.859375 3.37890625 C-16.48957311 3.10682231 -15.11978201 2.83468404 -13.75 2.5625 C-13.06808594 2.42779297 -12.38617188 2.29308594 -11.68359375 2.15429688 C-8.98862132 1.61791887 -6.30476482 1.07720036 -3.640625 0.40234375 C-2 0 -2 0 0 0 Z " fill="#321F1C" transform="translate(52,27)"/>
<path d="M0 0 C-0.33 2.31 -0.66 4.62 -1 7 C-1.33 6.01 -1.66 5.02 -2 4 C-2.99 4.495 -2.99 4.495 -4 5 C-7 5.1875 -7 5.1875 -10 5 C-10.66 4.34 -11.32 3.68 -12 3 C-11.67 2.34 -11.34 1.68 -11 1 C-7.318488 -0.05186057 -3.80944893 -0.08859184 0 0 Z " fill="#D85B35" transform="translate(54,23)"/>
<path d="M0 0 C1.32 0.33 2.64 0.66 4 1 C3.34 2.32 2.68 3.64 2 5 C1.01 5 0.02 5 -1 5 C-1 7.97 -1 10.94 -1 14 C-1.99 14.495 -1.99 14.495 -3 15 C-3.0270043 13.54176788 -3.04639787 12.08339325 -3.0625 10.625 C-3.07410156 9.81289063 -3.08570313 9.00078125 -3.09765625 8.1640625 C-3 6 -3 6 -2 4 C-3.32 3.67 -4.64 3.34 -6 3 C-5 2 -5 2 -2.4375 1.9375 C-1.2309375 1.9684375 -1.2309375 1.9684375 0 2 C0 1.34 0 0.68 0 0 Z " fill="#B46047" transform="translate(56,19)"/>
<path d="M0 0 C2.13093906 1.06546953 3.36587557 2.29159719 5 4 C-0.22512279 5.46670113 -4.5814234 6.22577402 -10 6 C-9.67 6.99 -9.34 7.98 -9 9 C-9.99 8.67 -10.98 8.34 -12 8 C-12 7.01 -12 6.02 -12 5 C-10.82630859 4.58427734 -10.82630859 4.58427734 -9.62890625 4.16015625 C-8.61699219 3.79792969 -7.60507812 3.43570312 -6.5625 3.0625 C-5.55316406 2.70285156 -4.54382812 2.34320312 -3.50390625 1.97265625 C-1.09686255 1.23122361 -1.09686255 1.23122361 0 0 Z " fill="#AD5D44" transform="translate(41,25)"/>
<path d="M0 0 C0 1.32 0 2.64 0 4 C-4.62 4 -9.24 4 -14 4 C-11.8553857 1.8553857 -10.98260002 1.55435397 -8.125 0.875 C-7.44695313 0.70742188 -6.76890625 0.53984375 -6.0703125 0.3671875 C-4 0 -4 0 0 0 Z " fill="#0B2027" transform="translate(51,29)"/>
<path d="M0 0 C0.33 0 0.66 0 1 0 C1.268125 1.19625 1.53625 2.3925 1.8125 3.625 C2.52369853 6.53163746 3.3246767 8.6493534 4.6875 11.375 C5.120625 12.24125 5.55375 13.1075 6 14 C5.67 14.66 5.34 15.32 5 16 C0.80720136 11.0734616 -0.5546903 8.20741402 -0.17578125 1.72265625 C-0.11777344 1.15417969 -0.05976563 0.58570313 0 0 Z " fill="#2F221A" transform="translate(25,34)"/>
<path d="M0 0 C1.65 0.33 3.3 0.66 5 1 C5 1.66 5 2.32 5 3 C2.36 3.66 -0.28 4.32 -3 5 C-3 4.34 -3 3.68 -3 3 C-2.34 3 -1.68 3 -1 3 C-0.67 2.01 -0.34 1.02 0 0 Z " fill="#291E26" transform="translate(51,18)"/>
</svg>
